<?xml version="1.0" standalone="no"?>
<!DOCTYPE svg PUBLIC "-//W3C//DTD SVG 20010904//EN"
 "http://www.w3.org/TR/2001/REC-SVG-20010904/DTD/svg10.dtd">
<svg version="1.0" xmlns="http://www.w3.org/2000/svg"
 width="600.000000pt" height="600.000000pt" viewBox="0 0 600.000000 600.000000"
 preserveAspectRatio="xMidYMid meet">

<g transform="translate(0.000000,600.000000) scale(0.100000,-0.100000)"
fill="#000000" stroke="none">
<path d="M2347 5975 c-726 -158 -1381 -591 -1824 -1206 -234 -324 -416 -734
-498 -1122 -25 -117 -25 -120 -25 -647 0 -527 0 -530 25 -647 88 -413 279
-830 539 -1177 401 -534 946 -911 1587 -1100 259 -76 257 -76 851 -76 494 0
540 2 628 20 1093 230 1982 1057 2295 2134 75 260 75 258 75 847 0 526 0 529
-25 646 -115 541 -392 1058 -787 1469 -411 426 -969 738 -1541 859 -117 25
-118 25 -655 24 -525 -1 -539 -1 -645 -24z m1083 -54 c160 -25 361 -73 269
-64 -69 7 -203 -19 -277 -52 -29 -13 -69 -27 -88 -31 -24 -4 -32 -10 -25 -17
7 -7 -3 -19 -32 -37 -84 -54 -150 -138 -167 -215 -7 -27 -17 -68 -23 -90 -16
-54 -14 -132 6 -315 24 -218 36 -272 56 -266 9 3 33 6 54 8 21 1 40 5 43 9 2
4 6 43 8 86 2 43 7 110 11 150 5 49 4 87 -5 117 -18 64 -8 91 39 110 108 43
418 83 723 93 l176 6 26 -28 c14 -15 28 -44 31 -64 4 -20 13 -69 21 -110 8
-40 14 -87 14 -105 l-1 -31 -14 26 c-18 34 -65 53 -115 46 -40 -5 -95 -39 -83
-51 3 -3 -1 -6 -9 -6 -14 0 -34 -28 -26 -36 5 -4 92 20 98 27 10 12 78 19 101
10 21 -8 18 -10 -26 -15 -92 -13 -179 -39 -254 -77 -83 -42 -110 -43 -169 -2
-19 12 -46 23 -59 23 -13 0 -22 4 -18 9 3 5 -5 17 -17 25 -25 18 -42 21 -33 6
10 -16 -5 -12 -32 10 -44 35 -123 52 -178 40 -60 -13 -100 -34 -119 -62 -27
-39 -19 -49 20 -26 47 27 159 35 229 14 36 -10 43 -15 25 -16 -56 -4 -181 -32
-267 -60 -67 -22 -73 -26 -73 -51 0 -19 6 -30 21 -34 23 -7 41 -43 63 -126 32
-116 85 -159 197 -159 212 0 283 55 295 230 7 89 19 112 54 103 13 -4 20 -18
25 -53 8 -61 54 -157 90 -190 26 -24 32 -25 153 -24 150 0 187 12 228 73 20
31 29 63 39 136 9 73 17 101 33 118 22 24 27 43 16 71 -5 12 -20 16 -63 16
-96 0 -99 3 -106 78 -26 283 -49 393 -85 412 -9 5 -29 34 -44 64 -30 61 -63
90 -116 101 -19 4 -66 25 -105 47 -78 44 -65 42 75 -9 195 -72 479 -221 650
-342 673 -477 1103 -1173 1232 -1996 19 -120 22 -181 22 -425 0 -244 -3 -305
-22 -425 -118 -757 -489 -1403 -1075 -1876 -139 -112 -417 -296 -417 -275 0 3
-8 -2 -18 -11 -14 -15 -149 -80 -318 -154 -157 -68 -442 -146 -667 -181 -122
-19 -182 -22 -427 -22 -320 0 -442 13 -705 78 -1266 312 -2188 1432 -2242
2722 l-6 151 35 26 c84 65 177 80 294 48 43 -12 99 -34 124 -48 50 -30 141
-113 202 -186 l41 -48 -23 -24 c-12 -13 -21 -28 -19 -33 2 -5 52 -60 111 -123
99 -104 113 -125 169 -238 133 -273 252 -411 554 -638 44 -33 101 -72 128 -87
47 -28 60 -46 33 -46 -8 0 -22 -9 -30 -21 -14 -21 -15 -21 -68 -3 -77 27 -197
25 -265 -5 -165 -73 -215 -266 -103 -394 63 -71 120 -99 216 -105 58 -3 101 1
150 13 51 13 89 16 146 11 101 -8 160 6 194 48 l25 31 17 -21 c34 -40 63 -48
182 -50 l115 -2 108 -102 108 -103 107 105 107 104 85 -7 c47 -4 118 -8 158
-8 79 -1 75 3 58 -56 -3 -12 -10 -54 -15 -94 -7 -53 -17 -84 -37 -114 -27 -40
-35 -61 -67 -174 -10 -33 -22 -52 -39 -60 -14 -7 -38 -31 -53 -53 -16 -23 -37
-46 -47 -51 -10 -5 -18 -15 -18 -22 -1 -7 -17 -24 -37 -39 -20 -16 -31 -28
-25 -28 6 0 24 12 41 26 37 31 104 39 137 17 36 -23 43 5 8 34 -30 24 -27 31
7 12 11 -5 28 -9 37 -7 14 3 12 9 -13 31 l-29 28 28 -10 c15 -6 32 -11 37 -11
16 0 10 28 -8 34 -15 6 -15 8 0 23 15 15 22 13 91 -20 49 -25 89 -37 116 -37
71 0 81 11 93 108 2 13 15 33 29 45 24 20 59 115 137 377 l8 25 144 -4 c134
-3 148 -2 189 19 96 48 127 100 122 201 -1 14 -16 47 -33 73 l-32 47 20 27
c28 40 34 61 22 84 -15 28 -104 66 -171 74 -32 4 -58 8 -58 10 0 2 54 117 120
256 66 139 120 258 120 265 0 8 13 13 34 13 l33 0 7 -72 c40 -468 40 -578 -3
-951 -32 -273 -34 -300 -20 -324 14 -22 14 -32 2 -86 -13 -55 -13 -62 2 -73
15 -11 15 -14 0 -37 -12 -19 -15 -42 -12 -93 l3 -69 2 75 c2 57 5 71 14 62 17
-17 59 -15 101 6 40 19 118 18 114 -2 -2 -12 17 -13 48 -1 18 7 17 5 -4 -18
-29 -32 -22 -45 15 -28 32 14 44 7 15 -9 -21 -11 -29 -40 -12 -40 5 0 25 7 44
15 20 8 38 11 41 6 3 -5 17 -11 30 -13 31 -6 28 18 -6 46 -71 59 -92 122 -69
202 6 20 5 47 -2 73 -9 34 -8 53 6 104 9 34 28 125 42 202 13 77 31 177 39
222 42 233 82 555 96 778 14 219 13 295 -2 295 -7 0 -58 -7 -113 -15 -55 -8
-163 -18 -240 -21 l-139 -7 164 177 c91 97 166 183 168 190 2 7 -123 136 -278
287 -252 248 -280 278 -280 307 0 18 -11 55 -25 82 -23 46 -24 51 -10 90 8 23
14 44 13 48 -1 4 4 26 11 48 9 28 11 61 7 98 -6 47 -14 62 -44 92 -71 69 -162
91 -397 97 -58 1 -105 4 -105 7 0 3 20 18 45 33 25 16 45 31 45 34 0 18 -366
-36 -481 -70 -40 -12 -56 -12 -115 0 -55 12 -118 14 -309 9 -218 -6 -243 -8
-267 -27 -16 -11 -28 -16 -28 -11 0 17 -52 32 -108 31 -84 -1 -163 -14 -171
-28 -6 -10 -17 -10 -47 -2 -55 15 -162 14 -218 -3 -126 -38 -187 -154 -137
-261 11 -22 30 -52 44 -66 14 -14 22 -31 19 -36 -13 -21 -297 -54 -610 -73
-384 -23 -501 -40 -577 -85 -51 -30 -97 -78 -129 -135 l-26 -45 6 65 c78 869
493 1620 1179 2135 389 292 861 488 1340 555 202 28 197 28 470 25 192 -2 281
-8 385 -24z m1020 -891 c0 -5 -7 -10 -16 -10 -8 0 -12 5 -9 10 3 6 10 10 16
10 5 0 9 -4 9 -10z m-150 -32 c0 -18 5 -40 10 -48 7 -12 10 -8 10 15 0 39 13
57 32 50 29 -11 41 -61 35 -141 -7 -88 -28 -132 -78 -156 -47 -24 -198 -35
-239 -18 -38 16 -73 73 -96 157 -14 51 -15 67 -5 91 21 50 111 79 254 81 l77
1 0 -32z m-513 -51 c27 -26 24 -156 -4 -219 -30 -66 -63 -80 -193 -86 -97 -4
-107 -2 -133 18 -32 25 -62 81 -72 131 -6 30 -3 36 17 46 61 31 73 27 69 -19
-3 -23 40 -27 127 -12 34 5 42 11 42 28 0 48 -22 61 -102 59 -40 -1 -74 -7
-76 -13 -2 -5 -11 -10 -21 -10 -9 0 -27 -7 -39 -16 -18 -13 -23 -13 -27 -1 -9
21 12 65 37 78 49 27 125 38 240 36 98 -2 120 -5 135 -20z m-472 -27 c-3 -5
-11 -10 -16 -10 -6 0 -7 5 -4 10 3 6 11 10 16 10 6 0 7 -4 4 -10z m-670 -1079
c62 -27 90 -72 90 -146 0 -46 -5 -67 -23 -92 -29 -40 -93 -71 -168 -81 l-59
-7 -5 -60 -5 -60 -90 0 -90 0 -7 225 c-5 124 -6 231 -3 239 9 22 303 7 360
-18z m-380 -162 c0 -173 0 -176 -27 -216 -38 -57 -102 -86 -198 -87 -99 -1
-164 18 -210 64 l-36 36 -15 -31 c-24 -47 -107 -87 -195 -93 -77 -5 -172 12
-180 33 -3 7 8 33 23 59 l28 47 66 -7 c54 -5 67 -4 72 9 8 22 -9 32 -77 45
-32 7 -73 21 -91 32 -64 40 -82 129 -37 190 25 35 100 70 164 77 53 5 160 -17
172 -35 3 -5 -9 -29 -25 -54 l-30 -46 -61 5 c-55 6 -60 4 -56 -13 2 -14 16
-21 48 -27 85 -15 119 -28 151 -54 l31 -27 -3 130 -4 129 91 3 91 3 7 -47 c3
-26 6 -95 6 -153 0 -71 4 -113 13 -123 18 -23 53 -28 76 -11 20 13 21 24 21
173 0 183 -9 169 110 167 l75 -2 0 -176z m787 171 l48 0 0 -66 0 -66 -80 5
c-79 4 -80 4 -80 -19 0 -23 3 -24 70 -24 l70 0 0 -60 0 -60 -76 0 c-72 0 -75
-1 -72 -22 3 -21 9 -23 86 -26 l82 -3 0 -52 c0 -29 -4 -57 -8 -64 -5 -9 -53
-10 -181 -6 l-174 6 8 226 c4 124 9 230 12 235 4 5 58 6 126 2 66 -3 142 -6
169 -6z m284 -10 c144 -11 198 -27 238 -69 58 -61 52 -145 -15 -205 l-40 -37
45 -84 c26 -45 46 -86 46 -89 0 -8 -105 -8 -153 0 -35 6 -41 12 -83 91 -26 46
-48 82 -50 80 -2 -2 -8 -37 -12 -78 l-7 -74 -90 3 c-49 2 -91 5 -94 8 -5 5 28
407 36 442 6 26 4 26 179 12z m-225 -519 c37 -9 86 -55 174 -166 59 -74 125
-144 147 -156 11 -6 30 -3 60 11 55 25 113 26 130 2 7 -10 20 -22 28 -26 8 -5
-59 64 -150 152 l-165 161 -80 2 -80 2 84 8 c64 6 89 5 103 -5 21 -15 132
-121 399 -382 l186 -182 -219 -231 c-121 -127 -221 -231 -224 -231 -22 0 18
53 134 177 75 80 166 177 201 215 l64 69 -69 70 c-38 38 -72 69 -76 69 -5 0
-8 -15 -8 -34 0 -19 -4 -38 -10 -41 -5 -3 -10 -13 -10 -21 0 -23 -61 -94 -81
-94 -10 0 -54 11 -99 26 -84 26 -150 72 -150 103 0 16 -105 111 -123 111 -4 0
-5 -16 -1 -35 3 -19 3 -55 0 -80 l-7 -45 -124 0 -125 0 -14 34 c-17 40 -62 77
-137 109 -82 37 -147 47 -294 47 -254 0 -395 -50 -395 -141 0 -59 72 -104 209
-129 34 -6 178 -15 319 -20 269 -10 344 -20 467 -65 177 -65 262 -191 253
-379 -4 -110 -44 -192 -128 -269 -101 -91 -208 -134 -415 -167 -299 -47 -575
-51 -805 -12 -132 23 -427 90 -452 103 -10 6 -20 28 -24 56 -10 66 2 257 18
290 14 28 15 28 96 26 129 -4 157 -15 187 -72 62 -123 192 -174 445 -174 301
0 460 49 460 142 0 47 -23 79 -74 102 -36 16 -68 19 -271 19 -252 0 -363 10
-500 45 -177 45 -299 125 -352 233 -25 51 -28 67 -28 163 0 101 1 108 38 181
89 180 283 294 567 333 134 19 485 19 595 1 44 -8 82 -12 84 -10 2 2 -1 9 -7
17 -6 7 -14 32 -18 55 l-7 42 119 0 c66 0 135 -4 155 -9z m-856 -12 c-58 -11
-603 -11 -586 0 7 5 151 8 320 8 168 -1 288 -4 266 -8z m448 4 c-24 -2 -62 -2
-85 0 -24 2 -5 4 42 4 47 0 66 -2 43 -4z m-1176 -55 c-14 -18 -129 -141 -255
-273 l-229 -240 86 -90 c408 -429 440 -465 412 -465 -15 0 -526 539 -526 555
0 14 462 504 504 535 36 25 39 17 8 -22z m1407 -1583 c-42 -49 -74 -69 -74
-48 0 13 94 103 108 103 7 0 -8 -25 -34 -55z m-882 8 c21 -20 38 -41 38 -45 0
-12 -20 -9 -33 5 -7 7 -25 27 -41 45 -42 45 -11 41 36 -5z m276 -150 l3 -52
-68 -3 c-55 -2 -68 -6 -71 -20 -3 -16 5 -18 62 -18 l66 0 0 -55 0 -54 -62 -3
c-48 -2 -63 -7 -63 -18 0 -11 17 -16 70 -20 l70 -5 3 -51 3 -52 -123 -7 c-68
-4 -136 -5 -153 -3 l-30 3 -6 135 c-4 74 -7 141 -8 148 -1 9 -19 12 -68 10
-55 -2 -68 -6 -71 -20 -3 -16 5 -18 62 -18 l66 0 0 -55 0 -55 -66 0 -66 0 7
-75 c7 -72 7 -74 -17 -80 -13 -3 -51 -5 -83 -3 l-60 3 -5 65 -5 65 -14 -33
c-32 -75 -121 -125 -227 -126 -92 -1 -173 37 -219 102 -26 38 -30 52 -30 111
0 59 4 73 29 110 95 137 342 138 433 2 l23 -34 0 70 0 70 69 7 c38 4 110 6
161 5 50 -1 94 1 97 5 4 4 70 5 147 4 l141 -3 3 -52z m348 38 c23 -10 49 -29
58 -42 l16 -23 0 24 c0 49 6 51 166 48 l149 -3 3 -52 c3 -56 1 -58 -55 -56
-10 1 -13 -32 -13 -131 l0 -131 83 185 83 185 78 -2 c43 -1 84 -7 91 -13 8 -7
38 -83 67 -171 l52 -158 22 20 c21 20 26 20 72 9 50 -13 82 -9 82 10 0 6 -6
13 -12 15 -149 51 -198 88 -198 146 0 52 31 94 84 114 82 31 267 5 266 -38 0
-6 -14 -27 -30 -45 l-30 -33 -50 15 c-41 12 -51 12 -60 1 -14 -16 1 -26 73
-45 28 -7 64 -27 83 -45 28 -27 34 -40 34 -74 0 -56 -20 -92 -67 -118 -51 -29
-117 -37 -178 -22 -27 6 -87 11 -131 10 -71 -2 -84 0 -95 17 -20 28 -141 37
-164 12 -13 -14 -36 -17 -153 -18 -75 -1 -145 1 -154 4 -16 5 -18 21 -18 149
l0 143 -34 4 c-32 4 -34 2 -40 -31 -3 -20 -19 -48 -37 -67 l-32 -33 29 -48
c17 -26 38 -60 48 -75 23 -36 13 -40 -80 -36 l-69 3 -43 65 c-23 36 -47 67
-52 68 -6 2 -10 -23 -10 -62 l0 -65 -43 -6 c-23 -4 -58 -5 -77 -3 l-35 3 -3
208 -2 207 142 0 c118 0 150 -4 184 -19z m1617 -1058 c-7 -2 -19 -2 -25 0 -7
3 -2 5 12 5 14 0 19 -2 13 -5z"/>
<path d="M4000 4531 c-8 -16 -7 -19 8 -17 9 2 18 10 20 19 5 23 -15 21 -28 -2z"/>
<path d="M3848 4533 c-33 -8 -20 -31 17 -31 19 0 35 4 35 9 0 13 -32 26 -52
22z"/>
<path d="M4107 4433 c-4 -3 -7 -13 -7 -22 1 -13 3 -13 11 2 11 19 8 33 -4 20z"/>
<path d="M3630 4419 c0 -23 65 -98 85 -99 17 0 15 4 -12 26 -18 14 -33 33 -33
42 0 10 -9 23 -20 30 -15 9 -20 9 -20 1z"/>
<path d="M3978 4373 c7 -3 16 -2 19 1 4 3 -2 6 -13 5 -11 0 -14 -3 -6 -6z"/>
<path d="M3808 4363 c6 -2 18 -2 25 0 6 3 1 5 -13 5 -14 0 -19 -2 -12 -5z"/>
<path d="M4050 4340 c0 -5 5 -10 10 -10 6 0 10 5 10 10 0 6 -4 10 -10 10 -5 0
-10 -4 -10 -10z"/>
<path d="M3995 4330 c-3 -5 -1 -10 4 -10 6 0 11 5 11 10 0 6 -2 10 -4 10 -3 0
-8 -4 -11 -10z"/>
<path d="M3768 4283 c7 -3 16 -2 19 1 4 3 -2 6 -13 5 -11 0 -14 -3 -6 -6z"/>
<path d="M3853 4283 c20 -2 54 -2 75 0 20 2 3 4 -38 4 -41 0 -58 -2 -37 -4z"/>
<path d="M4205 480 c-3 -5 -1 -10 4 -10 6 0 11 5 11 10 0 6 -2 10 -4 10 -3 0
-8 -4 -11 -10z"/>
<path d="M3992 455 c-7 -15 -8 -27 -2 -30 6 -4 10 3 10 14 0 17 6 21 36 21 21
0 33 4 29 10 -3 6 -19 10 -34 10 -20 0 -31 -7 -39 -25z"/>
<path d="M2810 446 c0 -2 8 -10 18 -17 15 -13 16 -12 3 4 -13 16 -21 21 -21
13z"/>
<path d="M4110 446 c0 -2 9 -6 20 -9 11 -3 18 -1 14 4 -5 9 -34 13 -34 5z"/>
<path d="M2980 430 c-22 -7 -21 -8 13 -9 30 -1 37 -5 37 -21 0 -11 5 -20 10
-20 13 0 13 16 0 41 -11 20 -20 22 -60 9z"/>
<path d="M2885 400 c-13 -6 -15 -9 -5 -9 8 0 22 4 30 9 18 12 2 12 -25 0z"/>
<path d="M3172 380 c0 -14 2 -19 5 -12 2 6 2 18 0 25 -3 6 -5 1 -5 -13z"/>
<path d="M2570 380 c-8 -5 -12 -11 -10 -14 3 -2 14 2 24 10 22 15 10 19 -14 4z"/>
<path d="M3861 364 c0 -11 3 -14 6 -6 3 7 2 16 -1 19 -3 4 -6 -2 -5 -13z"/>
<path d="M2525 352 c-17 -39 -15 -52 8 -51 12 0 16 3 10 6 -16 6 -17 40 -1 45
8 3 9 6 1 11 -6 4 -14 -1 -18 -11z"/>
<path d="M3990 335 c0 -25 11 -29 42 -17 15 6 13 10 -12 24 -30 17 -30 17 -30
-7z"/>
<path d="M3003 298 c-27 -13 -30 -27 -5 -26 9 0 24 -1 32 -3 9 -3 16 4 18 19
4 24 -9 27 -45 10z"/>
<path d="M2578 293 c7 -3 16 -2 19 1 4 3 -2 6 -13 5 -11 0 -14 -3 -6 -6z"/>
<path d="M2588 223 c7 -3 16 -2 19 1 4 3 -2 6 -13 5 -11 0 -14 -3 -6 -6z"/>
<path d="M4105 4935 c-22 -8 -47 -17 -56 -20 -22 -9 -53 -65 -42 -76 5 -5 41
-3 87 6 43 8 80 15 82 15 8 0 4 42 -6 61 -13 23 -5 24 49 4 22 -8 41 -10 41
-6 0 12 -57 31 -89 30 -14 0 -44 -7 -66 -14z"/>
<path d="M3725 4830 c10 -11 20 -20 23 -20 3 0 -3 9 -13 20 -10 11 -20 20 -23
20 -3 0 3 -9 13 -20z"/>
<path d="M2500 3681 c0 -51 0 -51 28 -45 35 9 52 22 52 43 0 27 -14 40 -48 47
l-32 7 0 -52z"/>
<path d="M3327 3724 c-4 -4 -7 -30 -7 -57 l0 -50 36 6 c20 3 42 11 50 18 18
15 18 53 1 68 -18 14 -70 25 -80 15z"/>
<path d="M1418 1416 c-42 -31 -40 -113 2 -136 30 -16 86 -11 111 9 18 14 24
29 24 61 0 32 -6 47 -24 61 -27 22 -88 25 -113 5z"/>
<path d="M2510 1430 c0 -47 16 -58 57 -38 53 25 37 78 -23 78 -33 0 -34 -1
-34 -40z"/>
<path d="M3228 1360 c-18 -42 -15 -50 18 -50 27 0 29 11 10 55 l-13 30 -15
-35z"/>
</g>
</svg>
